<svg id="visual" viewBox="0 0 960 540" width="960" height="540" xmlns="http://www.w3.org/2000/svg" xmlns:xlink="http://www.w3.org/1999/xlink" version="1.1"><rect x="0" y="0" width="960" height="540" fill="#75AE94"></rect><defs><linearGradient id="grad1_0" x1="43.8%" y1="0%" x2="100%" y2="100%"><stop offset="14.444444444444446%" stop-color="#2e2232" stop-opacity="1"></stop><stop offset="85.55555555555554%" stop-color="#2e2232" stop-opacity="1"></stop></linearGradient></defs><defs><linearGradient id="grad1_1" x1="43.8%" y1="0%" x2="100%" y2="100%"><stop offset="14.444444444444446%" stop-color="#2e2232" stop-opacity="1"></stop><stop offset="85.55555555555554%" stop-color="#38425a" stop-opacity="1"></stop></linearGradient></defs><defs><linearGradient id="grad1_2" x1="43.8%" y1="0%" x2="100%" y2="100%"><stop offset="14.444444444444446%" stop-color="#38667b" stop-opacity="1"></stop><stop offset="85.55555555555554%" stop-color="#38425a" stop-opacity="1"></stop></linearGradient></defs><defs><linearGradient id="grad1_3" x1="43.8%" y1="0%" x2="100%" y2="100%"><stop offset="14.444444444444446%" stop-color="#38667b" stop-opacity="1"></stop><stop offset="85.55555555555554%" stop-color="#478b8e" stop-opacity="1"></stop></linearGradient></defs><defs><linearGradient id="grad1_4" x1="43.8%" y1="0%" x2="100%" y2="100%"><stop offset="14.444444444444446%" stop-color="#75ae94" stop-opacity="1"></stop><stop offset="85.55555555555554%" stop-color="#478b8e" stop-opacity="1"></stop></linearGradient></defs><defs><linearGradient id="grad2_0" x1="0%" y1="0%" x2="56.3%" y2="100%"><stop offset="14.444444444444446%" stop-color="#2e2232" stop-opacity="1"></stop><stop offset="85.55555555555554%" stop-color="#2e2232" stop-opacity="1"></stop></linearGradient></defs><defs><linearGradient id="grad2_1" x1="0%" y1="0%" x2="56.3%" y2="100%"><stop offset="14.444444444444446%" stop-color="#38425a" stop-opacity="1"></stop><stop offset="85.55555555555554%" stop-color="#2e2232" stop-opacity="1"></stop></linearGradient></defs><defs><linearGradient id="grad2_2" x1="0%" y1="0%" x2="56.3%" y2="100%"><stop offset="14.444444444444446%" stop-color="#38425a" stop-opacity="1"></stop><stop offset="85.55555555555554%" stop-color="#38667b" stop-opacity="1"></stop></linearGradient></defs><defs><linearGradient id="grad2_3" x1="0%" y1="0%" x2="56.3%" y2="100%"><stop offset="14.444444444444446%" stop-color="#478b8e" stop-opacity="1"></stop><stop offset="85.55555555555554%" stop-color="#38667b" stop-opacity="1"></stop></linearGradient></defs><defs><linearGradient id="grad2_4" x1="0%" y1="0%" x2="56.3%" y2="100%"><stop offset="14.444444444444446%" stop-color="#478b8e" stop-opacity="1"></stop><stop offset="85.55555555555554%" stop-color="#75ae94" stop-opacity="1"></stop></linearGradient></defs><g transform="translate(960, 0)"><path d="M0 540C-49.9 542.3 -99.8 544.6 -139.8 521.6C-179.7 498.6 -209.8 450.1 -238.5 413.1C-267.2 376 -294.5 350.4 -321 321C-347.5 291.7 -373.3 258.7 -388 224C-402.7 189.3 -406.3 152.8 -429.8 115.2C-453.3 77.5 -496.7 38.8 -540 0L0 0Z" fill="#5b9d92"></path><path d="M0 432C-39.9 433.9 -79.8 435.7 -111.8 417.3C-143.8 398.8 -167.8 360.1 -190.8 330.5C-213.8 300.8 -235.6 280.3 -256.8 256.8C-278 233.4 -298.6 207 -310.4 179.2C-322.1 151.4 -325.1 122.2 -343.9 92.1C-362.7 62 -397.3 31 -432 0L0 0Z" fill="#3c7987"></path><path d="M0 324C-29.9 325.4 -59.9 326.8 -83.9 313C-107.8 299.1 -125.9 270.1 -143.1 247.9C-160.3 225.6 -176.7 210.2 -192.6 192.6C-208.5 175 -224 155.2 -232.8 134.4C-241.6 113.6 -243.8 91.7 -257.9 69.1C-272 46.5 -298 23.3 -324 0L0 0Z" fill="#39546c"></path><path d="M0 216C-20 216.9 -39.9 217.9 -55.9 208.6C-71.9 199.4 -83.9 180.1 -95.4 165.2C-106.9 150.4 -117.8 140.1 -128.4 128.4C-139 116.7 -149.3 103.5 -155.2 89.6C-161.1 75.7 -162.5 61.1 -171.9 46.1C-181.3 31 -198.7 15.5 -216 0L0 0Z" fill="#353146"></path><path d="M0 108C-10 108.5 -20 108.9 -28 104.3C-35.9 99.7 -42 90 -47.7 82.6C-53.4 75.2 -58.9 70.1 -64.2 64.2C-69.5 58.3 -74.7 51.7 -77.6 44.8C-80.5 37.9 -81.3 30.6 -86 23C-90.7 15.5 -99.3 7.8 -108 0L0 0Z" fill="#2e2232"></path></g><g transform="translate(0, 540)"><path d="M0 -540C47.6 -532.9 95.2 -525.8 135.9 -507.1C176.6 -488.5 210.4 -458.3 251.5 -435.6C292.6 -412.9 341 -397.8 362.7 -362.7C384.5 -327.7 379.6 -272.9 407 -235C434.4 -197.1 494.1 -176.1 521.6 -139.8C549.1 -103.4 544.6 -51.7 540 0L0 0Z" fill="#5b9d92"></path><path d="M0 -432C38.1 -426.3 76.1 -420.6 108.7 -405.7C141.3 -390.8 168.3 -366.6 201.2 -348.5C234.1 -330.3 272.8 -318.2 290.2 -290.2C307.6 -262.2 303.7 -218.3 325.6 -188C347.5 -157.7 395.3 -140.9 417.3 -111.8C439.3 -82.7 435.7 -41.4 432 0L0 0Z" fill="#3c7987"></path><path d="M0 -324C28.6 -319.7 57.1 -315.5 81.5 -304.3C105.9 -293.1 126.2 -275 150.9 -261.4C175.6 -247.8 204.6 -238.7 217.6 -217.6C230.7 -196.6 227.8 -163.7 244.2 -141C260.7 -118.3 296.4 -105.7 313 -83.9C329.5 -62 326.7 -31 324 0L0 0Z" fill="#39546c"></path><path d="M0 -216C19 -213.2 38.1 -210.3 54.4 -202.8C70.6 -195.4 84.2 -183.3 100.6 -174.2C117 -165.2 136.4 -159.1 145.1 -145.1C153.8 -131.1 151.9 -109.2 162.8 -94C173.8 -78.8 197.6 -70.4 208.6 -55.9C219.7 -41.4 217.8 -20.7 216 0L0 0Z" fill="#353146"></path><path d="M0 -108C9.5 -106.6 19 -105.2 27.2 -101.4C35.3 -97.7 42.1 -91.7 50.3 -87.1C58.5 -82.6 68.2 -79.6 72.5 -72.5C76.9 -65.5 75.9 -54.6 81.4 -47C86.9 -39.4 98.8 -35.2 104.3 -28C109.8 -20.7 108.9 -10.3 108 0L0 0Z" fill="#2e2232"></path></g></svg>